<svg width="16" height="16" viewBox="0 0 16 16" fill="none" xmlns="http://www.w3.org/2000/svg">
<g clip-path="url(#clip0_31_17594)">
<path d="M7.4964 6.99294C7.77418 7.27116 8.22529 7.27116 8.50351 6.99294L11.2733 4.22361C11.4067 4.08996 11.4816 3.90886 11.4816 3.72005C11.4816 3.53124 11.4067 3.35015 11.2733 3.2165L8.50351 0.447164C8.43745 0.380914 8.35897 0.32835 8.27256 0.292486C8.18615 0.256621 8.09351 0.238159 7.99995 0.238159C7.9064 0.238159 7.81376 0.256621 7.72735 0.292486C7.64094 0.32835 7.56246 0.380914 7.4964 0.447164L4.72662 3.2165C4.66037 3.28256 4.60781 3.36104 4.57194 3.44745C4.53608 3.53386 4.51761 3.6265 4.51761 3.72005C4.51761 3.81361 4.53608 3.90625 4.57194 3.99266C4.60781 4.07907 4.66037 4.15755 4.72662 4.22361L7.4964 6.99294ZM11.7768 11.2729C12.0546 11.5512 12.5057 11.5512 12.784 11.2729L15.5537 8.50361C15.6871 8.36996 15.762 8.18886 15.762 8.00005C15.762 7.81124 15.6871 7.63015 15.5537 7.4965L12.784 4.72716C12.7179 4.66091 12.6394 4.60835 12.553 4.57249C12.4666 4.53662 12.374 4.51816 12.2804 4.51816C12.1868 4.51816 12.0942 4.53662 12.0078 4.57249C11.9214 4.60835 11.8429 4.66091 11.7768 4.72716L9.00706 7.4965C8.94081 7.56256 8.88825 7.64104 8.85238 7.72745C8.81652 7.81386 8.79806 7.9065 8.79806 8.00005C8.79806 8.09361 8.81652 8.18625 8.85238 8.27266C8.88825 8.35907 8.94081 8.43755 9.00706 8.50361L11.7768 11.2729ZM11.2728 11.7769L8.50351 9.00716C8.43745 8.94091 8.35897 8.88835 8.27256 8.85249C8.18615 8.81662 8.09351 8.79816 7.99995 8.79816C7.9064 8.79816 7.81376 8.81662 7.72735 8.85249C7.64094 8.88835 7.56246 8.94091 7.4964 9.00716L4.72706 11.7769C4.66088 11.843 4.60837 11.9214 4.57255 12.0078C4.53672 12.0942 4.51828 12.1868 4.51828 12.2803C4.51828 12.3738 4.53672 12.4664 4.57255 12.5527C4.60837 12.6391 4.66088 12.7176 4.72706 12.7836L7.4964 15.5534C7.77462 15.8312 8.22529 15.8312 8.50351 15.5534L11.2728 12.7836C11.339 12.7176 11.3915 12.6391 11.4274 12.5527C11.4632 12.4664 11.4816 12.3738 11.4816 12.2803C11.4816 12.1868 11.4632 12.0942 11.4274 12.0078C11.3915 11.9214 11.339 11.843 11.2728 11.7769ZM6.99284 7.49694L4.22351 4.72716C4.15745 4.66091 4.07897 4.60835 3.99256 4.57249C3.90615 4.53662 3.81351 4.51816 3.71995 4.51816C3.6264 4.51816 3.53376 4.53662 3.44735 4.57249C3.36094 4.60835 3.28246 4.66091 3.2164 4.72716L0.447063 7.49694C0.38088 7.56299 0.328373 7.64145 0.292547 7.72782C0.256722 7.81418 0.238281 7.90677 0.238281 8.00027C0.238281 8.09378 0.256722 8.18636 0.292547 8.27273C0.328373 8.3591 0.38088 8.43756 0.447063 8.50361L3.2164 11.2734C3.49462 11.5512 3.94529 11.5512 4.22351 11.2734L6.99284 8.50361C7.05902 8.43756 7.11153 8.3591 7.14736 8.27273C7.18318 8.18636 7.20162 8.09378 7.20162 8.00027C7.20162 7.90677 7.18318 7.81418 7.14736 7.72782C7.11153 7.64145 7.05902 7.56299 6.99284 7.49694Z" fill="#55ACEE"/>
<path d="M6.99267 7.49692L5.56423 6.06803C5.12666 6.61689 4.88846 7.29809 4.88867 8.00003C4.88867 8.73069 5.14245 9.40136 5.56423 9.93203L6.99267 8.50358C7.05886 8.43753 7.11136 8.35908 7.14719 8.27271C7.18301 8.18634 7.20145 8.09375 7.20145 8.00025C7.20145 7.90675 7.18301 7.81416 7.14719 7.72779C7.11136 7.64142 7.05886 7.56297 6.99267 7.49692ZM9.93223 10.4356L8.50334 9.00669C8.36963 8.87344 8.18856 8.79861 7.99978 8.79861C7.81101 8.79861 7.62993 8.87344 7.49623 9.00669L6.06734 10.4356C6.61632 10.8733 7.29769 11.1114 7.99978 11.1111C8.70187 11.1114 9.38325 10.8733 9.93223 10.4356ZM9.00689 8.50358L10.4358 9.93247C10.8733 9.38343 11.1113 8.70207 11.1109 8.00003C11.1115 7.29803 10.8732 6.61672 10.4353 6.06803L9.00645 7.49692C8.87317 7.63055 8.79836 7.81161 8.79844 8.00034C8.79853 8.18908 8.8735 8.37007 9.00689 8.50358ZM8.50334 6.99292L9.93223 5.56447C9.38325 5.12681 8.70187 4.88861 7.99978 4.88892C7.29778 4.88836 6.61647 5.12659 6.06778 5.56447L7.49667 6.99292C7.56272 7.0591 7.64118 7.11161 7.72755 7.14743C7.81392 7.18326 7.9065 7.2017 8.00001 7.2017C8.09351 7.2017 8.1861 7.18326 8.27246 7.14743C8.35883 7.11161 8.43729 7.0591 8.50334 6.99292Z" fill="#3B88C3"/>
<path d="M7.99957 10.2223C9.22687 10.2223 10.2218 9.22735 10.2218 8.00005C10.2218 6.77275 9.22687 5.77783 7.99957 5.77783C6.77227 5.77783 5.77734 6.77275 5.77734 8.00005C5.77734 9.22735 6.77227 10.2223 7.99957 10.2223Z" fill="#BBDDF5"/>
</g>
<defs>
<clipPath id="clip0_31_17594">
<rect width="16" height="16" fill="white"/>
</clipPath>
</defs>
</svg>
